<?xml version="1.0" standalone="no"?>
<!DOCTYPE svg PUBLIC "-//W3C//DTD SVG 20010904//EN"
 "http://www.w3.org/TR/2001/REC-SVG-20010904/DTD/svg10.dtd">
<svg version="1.0" xmlns="http://www.w3.org/2000/svg"
 width="500.000000pt" height="500.000000pt" viewBox="0 0 500.000000 500.000000"
 preserveAspectRatio="xMidYMid meet">

<g transform="translate(0.000000,500.000000) scale(0.100000,-0.100000)"
fill="#000000" stroke="none">
<path d="M825 4955 c-200 -36 -362 -121 -511 -270 -110 -109 -172 -201 -224
-337 -62 -160 -60 -96 -60 -1834 0 -1058 4 -1608 11 -1661 14 -108 67 -258
125 -355 61 -102 201 -248 301 -312 91 -59 187 -100 300 -129 l88 -22 1645 0
1645 0 98 27 c311 86 553 302 662 592 63 166 59 52 62 1761 4 1622 2 1710 -37
1854 -86 308 -332 562 -641 660 -128 41 -132 41 -1799 40 -1245 -1 -1610 -4
-1665 -14z m3344 -269 c81 -18 210 -82 280 -139 115 -96 207 -245 236 -383 22
-102 22 -3225 1 -3326 -42 -198 -190 -381 -381 -473 -141 -68 -43 -65 -1811
-65 -1550 0 -1603 1 -1676 19 -138 36 -278 123 -365 230 -50 61 -123 207 -144
286 -16 63 -26 3081 -10 3236 11 109 44 215 93 296 94 156 263 279 438 319 85
19 3250 19 3339 0z"/>
<path d="M2331 4359 c-62 -12 -159 -46 -201 -70 -19 -11 -27 -18 -16 -14 56
17 201 35 283 35 200 0 400 -62 591 -184 152 -96 154 -96 77 -17 -184 190
-346 262 -582 260 -59 -1 -128 -5 -152 -10z"/>
<path d="M2245 4176 c-103 -17 -213 -48 -334 -92 -74 -28 -103 -44 -128 -72
-41 -47 -119 -156 -107 -150 5 2 63 30 129 62 236 115 417 161 625 160 162 -1
236 -16 367 -79 230 -109 439 -305 658 -620 37 -52 68 -95 70 -95 12 0 -76
244 -113 316 -26 50 -168 206 -258 284 -144 126 -308 218 -469 265 -111 32
-313 42 -440 21z"/>
<path d="M2170 3863 c-140 -11 -332 -62 -491 -130 l-107 -45 -32 -70 c-18 -38
-31 -71 -29 -73 2 -2 56 23 120 54 136 67 297 123 424 147 126 23 309 23 409
0 229 -53 463 -207 656 -432 106 -123 124 -148 329 -444 90 -129 169 -241 176
-249 11 -11 12 3 8 75 -3 49 -10 97 -14 106 -18 34 -240 351 -316 450 -278
364 -590 570 -922 608 -84 10 -120 10 -211 3z"/>
<path d="M2075 3523 c-185 -24 -417 -99 -587 -190 -64 -35 -67 -38 -82 -93 -9
-31 -16 -61 -16 -66 0 -6 73 26 163 71 264 131 439 178 667 177 158 0 246 -19
378 -82 129 -62 218 -126 332 -240 151 -151 231 -267 490 -715 73 -126 150
-256 170 -289 l37 -58 5 87 5 88 -105 181 c-285 495 -378 632 -536 790 -232
231 -505 349 -795 345 -53 -1 -109 -4 -126 -6z"/>
<path d="M2100 3253 c-213 -12 -443 -94 -656 -235 -99 -65 -96 -61 -109 -162
-6 -41 -4 -48 7 -39 205 160 331 232 506 288 121 38 201 48 351 42 229 -9 358
-63 497 -209 172 -181 275 -346 547 -873 167 -325 217 -406 281 -459 49 -40
48 -41 62 37 6 34 3 42 -23 70 -50 54 -68 86 -238 416 -231 449 -343 635 -489
808 -110 132 -231 225 -340 264 -104 36 -272 58 -396 52z"/>
<path d="M1965 3040 c-192 -35 -374 -146 -520 -317 -120 -140 -125 -151 -125
-267 l0 -101 44 77 c82 145 227 310 336 385 72 49 165 92 232 108 99 23 238
19 352 -10 366 -92 560 -343 558 -720 -1 -257 -79 -491 -282 -845 -81 -141
-263 -417 -368 -560 l-70 -95 45 -13 c24 -8 50 -11 58 -8 15 5 112 139 243
337 368 555 510 942 472 1290 -34 307 -180 518 -445 645 -159 76 -397 118
-530 94z"/>
<path d="M2015 2769 c-85 -17 -223 -91 -298 -159 -153 -141 -237 -323 -272
-593 -19 -149 -19 -241 0 -353 39 -219 163 -347 340 -348 79 -1 131 16 138 46
13 50 -22 73 -89 58 -63 -14 -141 8 -193 55 -86 78 -123 244 -103 458 29 311
134 531 309 650 89 61 167 87 275 94 368 23 557 -227 494 -655 -33 -226 -83
-348 -217 -530 -91 -124 -336 -366 -507 -501 -73 -58 -132 -108 -132 -112 0
-9 63 -59 75 -59 11 0 174 131 305 246 209 183 402 418 479 585 74 158 116
379 108 559 -9 189 -56 316 -153 414 -100 103 -212 146 -389 151 -66 2 -142 0
-170 -6z"/>
<path d="M2043 2510 c-74 -15 -155 -62 -218 -125 -120 -123 -185 -278 -193
-461 -5 -129 9 -194 60 -270 49 -72 113 -108 204 -112 101 -6 163 24 258 121
151 154 208 371 132 502 -39 66 -96 99 -172 100 -50 0 -68 -5 -102 -28 -119
-78 -186 -277 -133 -394 24 -52 66 -77 102 -60 34 18 36 51 4 89 -25 29 -27
38 -22 86 12 117 96 223 165 207 115 -25 120 -197 11 -359 -121 -182 -277
-219 -366 -87 -32 47 -43 94 -43 181 0 188 107 394 246 476 129 75 321 36 388
-79 109 -185 8 -529 -243 -829 -120 -143 -329 -317 -480 -400 -17 -9 -31 -21
-31 -25 0 -5 13 -24 28 -43 l29 -34 56 32 c194 109 460 357 580 538 198 299
257 596 157 794 -48 96 -143 160 -267 180 -66 11 -91 11 -150 0z"/>
<path d="M3027 2096 c-10 -11 -16 -51 -20 -148 -6 -151 -26 -231 -102 -414
-98 -233 -268 -519 -514 -865 -13 -18 -11 -19 50 -19 l64 0 102 153 c239 356
397 668 471 927 l19 65 21 -41 c30 -59 129 -180 193 -238 49 -44 191 -146 203
-146 3 0 12 21 19 47 l14 47 -56 40 c-191 133 -320 309 -369 503 -10 39 -24
78 -31 87 -17 20 -45 21 -64 2z"/>
<path d="M3110 1480 c-10 -6 -17 -36 -21 -102 -10 -149 -83 -327 -240 -585
-75 -124 -75 -125 20 -95 l54 17 68 120 c66 114 169 341 169 370 0 30 18 21
58 -29 23 -30 64 -72 91 -95 l50 -42 27 40 26 41 -80 85 c-79 84 -142 185
-142 230 0 40 -46 67 -80 45z"/>
</g>
</svg>
